<?xml version="1.0" encoding="UTF-8"?>
<svg id="Layer_2" data-name="Layer 2" xmlns="http://www.w3.org/2000/svg" viewBox="0 0 813.52 332.26">
  <defs>
    <style>
      .cls-1 {
        fill: #231f20;
        stroke-width: 0px;
      }
    </style>
  </defs>
  <g id="Layer_1-2" data-name="Layer 1">
    <g>
      <path class="cls-1" d="M186.15,328.47h-16.54l-23.1-66.53H39.3l-23.1,66.53H0L84.45,86.48h17.24l84.45,241.99h.01ZM141.69,247.46l-48.6-141.68-48.95,141.68h97.55Z"/>
      <path class="cls-1" d="M376.78,267.8c0,39.64-31.37,64.46-75.15,64.46-31.37,0-57.57-11.38-77.56-28.96l10.69-11.72c19.65,16.55,40.68,26.2,67.56,26.2,32.75,0,58.6-16.89,58.6-49.29,0-26.54-15.17-40.33-63.08-57.91-52.05-19.3-67.91-34.47-67.91-67.56s26.89-59.63,72.04-59.63c32.06,0,51.36,9.31,70.32,23.1l-10.34,12.41c-17.24-13.1-34.13-21.03-61.01-21.03-37.92,0-55.15,21.03-55.15,44.12,0,24.47,11.03,36.2,60.67,54.46,53.43,19.65,70.32,36.54,70.32,71.36h0Z"/>
      <path class="cls-1" d="M602.9,328.47h-16.54l-23.1-66.53h-107.21l-23.1,66.53h-16.2l84.45-241.99h17.24l84.45,241.99h0ZM558.44,247.46l-48.6-141.68-48.95,141.68h97.55Z"/>
      <path class="cls-1" d="M813.52,156.11c0,47.23-31.37,72.04-82.04,72.04h-58.26v100.31h-15.86V87.16h78.94c45.5,0,77.21,20.34,77.21,68.94h0ZM797.32,156.8c0-38.26-22.41-55.15-61.7-55.15h-62.39v112.03h58.26c43.78,0,65.84-18.96,65.84-56.88h-.01Z"/>
    </g>
    <polygon class="cls-1" points="506.38 66.53 522.58 66.53 545.68 0 529.52 0 506.38 66.53"/>
  </g>
</svg>